<svg xmlns="http://www.w3.org/2000/svg" viewBox="0 0 512 512">
<defs><linearGradient id="metal" x1="0" y1="0" x2="1" y2="1"><stop offset="0" stop-color="#55585d"/><stop offset=".5" stop-color="#242629"/><stop offset="1" stop-color="#111214"/></linearGradient></defs>
<rect width="512" height="512" rx="108" fill="#111214"/>
<rect x="28" y="28" width="456" height="456" rx="88" fill="url(#metal)" stroke="#e30613" stroke-width="16"/>
<circle cx="205" cy="202" r="86" fill="none" stroke="#ff3340" stroke-width="38"/>
<path d="M266 265l111 111" stroke="#ff3340" stroke-width="42" stroke-linecap="round"/>
<path d="M313 337l78-78" stroke="#e1e2e4" stroke-width="28" stroke-linecap="round"/>
<path d="M356 217c22-22 55-26 81-12l-45 45 22 22 45-45c14 26 10 59-12 81-25 25-65 29-94 10l-74 74-45-45 74-74c-19-29-15-69 10-94z" fill="#e1e2e4" transform="translate(0 28) scale(.88)" transform-origin="350px 300px"/>
</svg>